<svg xmlns="http://www.w3.org/2000/svg" viewBox="0 0 111.16 94.43"><defs><style>.cls-1{fill:#696969;fill-rule:evenodd;}</style></defs><g id="Capa_2" data-name="Capa 2"><g id="Layer_1" data-name="Layer 1"><path class="cls-1" d="M111.13,35.37c-.15-.69-1.55-.82-2.23-.72-.84.13-1.2.8-2,.72a1.52,1.52,0,0,1-1.52.6c-.42.62-1,.29-1.92.21-.39.18-.55.38-1,.09-.19.32-.66.35-1,.51l.15,0,0,.15c.14.24-.08.21.2.31,1.54.54,3.08-.66,4.76-.71.14-.1.2-.27.41-.31C108.2,36.94,111.47,36.86,111.13,35.37Z"/><path class="cls-1" d="M63.21,3c.18-.1.23-.32.21-.61l-.19.05-.11-.16C63,2.26,62.88,3.07,63.21,3Z"/><path class="cls-1" d="M89.05,5.68c2.54.4,3.18-1.48,3.14-3.34-.65-.32-.7-1-1.32-1.22a4,4,0,0,0-2.83.3,2.67,2.67,0,0,0-.71,3C87.66,5.09,88.58,5,89.05,5.68Z"/><path class="cls-1" d="M63.21,10c.07,0,.13,0,.11.1h.2C63.68,9.89,63.18,9.84,63.21,10Z"/><path class="cls-1" d="M44,12.57c0-.25,0-.49-.2-.51C43.75,12.31,43.75,12.55,44,12.57Z"/><path class="cls-1" d="M44,12.77c-.12.19-.54.08-.41.51C43.89,13.66,44.48,12.93,44,12.77Z"/><path class="cls-1" d="M99.18,23.72A3.21,3.21,0,0,0,102,21.89a2.61,2.61,0,0,1-.2-1.31c-.52-.36-1.12-1-1.73-1.12-1.56-.26-3.7,1.55-2.94,2.94A2.56,2.56,0,0,0,99.18,23.72Z"/><path class="cls-1" d="M17.22,20.67c-.36,0-.53.15-.5.51C17,21.13,17.11,20.89,17.22,20.67Z"/><path class="cls-1" d="M77.1,21.28c0-.19.28-.18.2-.51h-.41C76.88,21,76.87,21.27,77.1,21.28Z"/><path class="cls-1" d="M43.26,23.61c0,.31.09.52.3.61l.06-.15.15.05C43.85,23.7,43.61,23.6,43.26,23.61Z"/><path class="cls-1" d="M45.19,26.65c0-.23,0-.38-.21-.4C45,26.43,44.88,26.76,45.19,26.65Z"/><path class="cls-1" d="M33.74,28.17c.36-.08.49.23.71,0L34.4,28l.05-.16c0-.22-.74-.33-.92,0C33.72,27.85,33.77,28,33.74,28.17Z"/><path class="cls-1" d="M38.09,30.81c0-.13,0-.24.2-.21a.26.26,0,0,0-.2-.3C38,30.45,37.74,30.73,38.09,30.81Z"/><path class="cls-1" d="M80.74,30.4a.7.7,0,0,0-.1.51C81.17,31.07,81.37,30.29,80.74,30.4Z"/><path class="cls-1" d="M26.34,33.23c-.59-.25-1.35-.06-1.21.72C25.68,34.36,26.27,33.87,26.34,33.23Z"/><path class="cls-1" d="M101.26,37l0-.16c-.25-.28-.43.2-.61.21.07,0-.16-.19-.3-.21-.82-.09-2.13.1-2.13.51,0-.09.44.47.3.4.63.29,2-.28,2.63-.2,0-.19.3-.18.21-.5Z"/><path class="cls-1" d="M27.66,35.56c-.08-.21-.61.08-.3.21C27.36,35.6,27.63,35.71,27.66,35.56Z"/><path class="cls-1" d="M95.74,37.39c0,.23,0,.38.2.4A.23.23,0,0,0,95.74,37.39Z"/><path class="cls-1" d="M35.36,42.25c-.34-.3-.31.38,0,0Z"/><path class="cls-1" d="M85.3,45.09c.18-.17,0-.4-.3-.41C85,45,85,45.12,85.3,45.09Z"/><path class="cls-1" d="M97.87,63.63a2.11,2.11,0,0,0-.11.91c.38,0,.27.41.71.3a.92.92,0,0,0,.2-1.31C98.29,63.45,98.19,63.65,97.87,63.63Z"/><path class="cls-1" d="M61.29,80.14l-.11.15L61,80.24a4.51,4.51,0,0,0,.3,2.74l.12-.16.19.06A6.12,6.12,0,0,0,61.29,80.14Z"/><path class="cls-1" d="M61.68,85l-.19,0c-.19.5-.1,1.5.31,1.73.62-.18.21-1.53,0-1.83Z"/><path class="cls-1" d="M78,83.18c0,.12-.12.07-.21,0s0,.2-.1.2,0-.12-.1-.1c.08.11.09.78.2.51C77.69,83.47,78.4,83.45,78,83.18Z"/><path class="cls-1" d="M94.72,38.1c-.18-.29,0-.46-.3-.51-.72,0-1.1.35-1.63.32.08,0,.12.05,0,.09-1.94-.26-4.61.28-6.39-.71-.24-1.06-1.13-1.38-1.92-1.83-.24-.12-.4-.41-.61-.5s-.35,0-.5,0-.2-.27-.31-.31-.62-.13-.91-.2c-.7-.15-1.67-.33-2.43-.5-1.39-.31-2.32-.41-2.33-1.72-.06-.36.36-.26.3-.61a2.51,2.51,0,0,1,.51-1.93l.41-.6a10.15,10.15,0,0,1,1.82-2c.26-.24.44-.62.71-.91s.9-.7,1.22-1.11.47-1.28,1.21-1.52c0-.65.47-.94.81-1.32,0-.4.2-.6.2-1a45.66,45.66,0,0,1,4.46-4.66c0-.24.17-.3.1-.61.28,0,.2.17.41,0,.06-.34.36-.45.4-.8a20.7,20.7,0,0,1,2.53-1.42c.34-.2.55-.66,1-.62-.17-.31.19-.24.3-.4.36-.55.34-1.36.71-1.92-.15-.36-.26-.76-.61-.91-.54-.08-.82.12-1.31.09a3.59,3.59,0,0,1-1,.92c0,.24-.17.3-.1.61A45.31,45.31,0,0,0,88.24,15a.63.63,0,0,0-.41.11c-.29.22-.38.66-.71.91-.1.08-.31,0-.4.1s-.07.35-.2.5-.4.18-.51.31-.44.57-.71.81a10.59,10.59,0,0,0-1.32,1c-.15.2-.06.47-.2.71a7.75,7.75,0,0,1-1.22,1.31c-1,1.07-2.28,2-2.63,3.65,0,.24.46-.05.31.3-.43.11-.37.55-.61.82-.5.56-1.32.75-1.93,1.21a4.71,4.71,0,0,1-1.52-.2c-.58-1.27-1.91-1.76-2.43-2.94a7,7,0,0,1-.4-1.42c-.09-.57.18-.87.2-1.21.09-1.48-.65-3.09-.81-4.46.23-.24.29-.65.81-.61-.26-.67.38-1.12.61-1.61,0-2.12,2.49-2.54,1.72-4.77-1.55-.74-2.54,1-2.33,2.94-.64,1-.83,2.48-2.23,2.74-1.36-1.48-4.07-1-5.67-.31-1.17,1.84-2.29,3.72-3.45,5.57-1.24.73-2.86,1.73-4.65,1-.57-.76-1-.92-1.32-1.51A7.24,7.24,0,0,1,56,16.32c.27-1.67,1.32-3.19,1.53-4.76.22-1.77-.54-4-2.13-3-1.05.65-.71,3.63-.81,4.76-.1,1-.88,2.85-1,3.55-.27,1.37-.07,2.81-.71,3.44a7,7,0,0,0-2,1.82,3.46,3.46,0,0,1-1,2.13v.5c-.24.18-.34.5-.5.72a18.7,18.7,0,0,1-1.72,1.82c-.44.24-1,.37-1.42.6a.28.28,0,0,0-.21-.3c-.17.26.12.36-.1.51-.24-.35-.18.52-.4,0a1.26,1.26,0,0,1-.71,1.11c-.27.18-.77.24-1.32.51-1.22.6-2.37,2-3.75,1.73a5.68,5.68,0,0,1-2.73.7c-.15,0-.36-.12-.51-.1a7.22,7.22,0,0,1-1.42.31,4,4,0,0,1-2.22-1.12c-1.75-.35-2.53-1.2-4.06-1.62a2.73,2.73,0,0,0-2-.91c-.13-.31-.5-.39-.61-.71a3.39,3.39,0,0,1-2-1.32c-.74.07-.67-.67-1.41-.61-1.11-1.09-2.64-1.76-3.76-2.83-.28,0-.42-.19-.7-.21-.14-.64-.66-.27-.81-.91-.24.14-.76-.32-.92-.61.06,0,.12-.07,0-.09-.56.05-1-.9-1.92-.81-1.43-1.27-3.47-2-4.56-3.35-.32-.11-.23,0-.6,0a.58.58,0,0,0-.11-.4A4.82,4.82,0,0,1,7.7,16c-.1-.08-.21-.24-.3-.31C6.22,14.77,4.83,14.22,4.16,13a4.23,4.23,0,0,0-3.75-.92c-.17.38-.42.51-.41.92A5.14,5.14,0,0,0,1.12,14.7c.28.25.52.16.91.3s.52.38.71.41c.36.05.78-.17,1.11-.11.94.18,1.49,1.23,2.23,1.12-.2.23,0,.11.1.3.74.28,1.51.52,1.83,1.22,1.56.68,2.53,2,4.05,2.43a5.11,5.11,0,0,0,2.13,1.32c.52.53,1.26,1.35,2,1.31-.08.71,1.13,1,1.42,1.63.24,0,.3.17.61.09a3,3,0,0,0,1.62,1.12c0,.41.39.37.61.51s.11.26.2.3.36,0,.51.1.37.61.71.61c-.09,0,1.18.35,1.11,1,1,0,1.21.88,2,1.12a1.94,1.94,0,0,0,.51,1.11c.13.13.37.11.51.21s-.12.43.3.2c0,.25.16.31.21.5s.25,0,.5,0a7.34,7.34,0,0,0,3.45,2.33c.17.07.42-.05.61,0s.46.29.7.41a7.66,7.66,0,0,1,.81.4c.22.17.31.59.51.72s.22-.18.4,0-.11.16-.1.19c.06.19.63.28.61.51A4.16,4.16,0,0,0,35,37.9c-.3.14.21.52-.1.7.86.58,1,1.38,1,2.64-.2,0-.44-.31-.41.1.4,0,0,.06,0,.2,0,.37.36,1-.1,1.32-.09.06-.13-.22-.21-.2,0,.29.2.35.31.5-.22.09-.26.26-.51.51.48.15.09.27.51.31-.13.39.29.24.31.5-.22.42.26.74.4,1.32-.54-.28,0,.65-.61.71.47,0,.14.12.31.4-.25-.21-.23.22-.31.31a4,4,0,0,1-1.92.81c-1.29.26-2.77.08-3.55.71a19.25,19.25,0,0,0-4.66.7c-.21.1-.09.52-.41.51a7.06,7.06,0,0,0-1.72,0c-1.56-1.32-3.29.91-5.26.1A9.27,9.27,0,0,1,15,51c-.93.14-2.33.49-2.44,1.32s.73,1.23,1.52,1.12c.1,0,.47-.28.71-.41a3.12,3.12,0,0,1,2.64-.41c.22-.36.62-.16,1-.3.13-.05.09-.22.3-.3.77-.29,2.5-.4,3.15-.61a1.83,1.83,0,0,1,1.21.1,7.84,7.84,0,0,0,2.53-.4c.23,0,.47.11.71.1,0,0,.17-.18.31-.21.39-.07,1,.13,1.51.11a13.74,13.74,0,0,1,2.34-.21,5.41,5.41,0,0,0,2.83-.3c.24,0,.38.16.71.1a3.21,3.21,0,0,1,2.13-.31c.25.8.35,1.32.51,1.93-.12-.17-.23,0-.31.1-.35.32-.25.4-.3.61,0,0-.27.16-.3.2l-1.12.61a3,3,0,0,1-.41,1.32,6.59,6.59,0,0,1-2,2.13c-.63.46-1.31,1-1.83,1.31a14.48,14.48,0,0,1-1.52.91c-.1.05-.28,0-.4,0a10.56,10.56,0,0,1-2.53,1,3.69,3.69,0,0,1-3,1.21c-.69.73-2.71.91-2.43,2.13s2,.44,3.14.31c.47-.47.83-1.06,1.31-1.53,1-.29,1.51-1.5,2.74-1.21.33-.65,1.43-.6,1.92-.81,0,.16,0,.35.21.3.33-.54.94-.65,1.41-1s.65-.74,1-1a7.5,7.5,0,0,1,3.44-1.32,5.71,5.71,0,0,1,2.63-.2,3,3,0,0,0,1,.81c.31.26.38.77.81.91.22.75,1.08,1.41,1.11,2.63a1.76,1.76,0,0,1,.91,1.22,2,2,0,0,1,.71.61c.11.1.57.68.61.71.42.24,1.11.13,1.73.3.35.1.61.34.91.41s1,0,1.41.1,1,.45,1.53.3c.31.59.87.69,1.21,1.21.59.92.33,2.34.71,3.55a7.29,7.29,0,0,0,.61,1,6.64,6.64,0,0,0,.5,1.22c-.28,1.2-.26,2.7-.91,3.54a3.73,3.73,0,0,0,.91,3.55c3.41.24,3-3.68,2.64-6.38.38-.53.74-1.08,1.11-1.62.91-.25,1.07-1.22,2.13-1.32.34.06.32.49.3.91.23.79.67,1.36.91,2.14.51.29.72.89,1.12,1.31a3.18,3.18,0,0,0,.3,1.92,1.69,1.69,0,0,0,.81.1c.66,1.16,1.88,2.54,1.63,4-.16-.17-.46-.12-.41.2.15.06.52-.12.51.1.06,1,.49,2,.6,2.93.08.65-.11,1.3,0,1.93s.48,1,.61,1.52c.25,1,.11,2.07.51,2.64-.4,1.46-.82,5.65,1.31,4.45,0-1.36.91-2.11.41-3.44-.13-.33-.6-.62-.71-1C65.63,89,66,88,65.75,87c-.32-1.44-.88-2.17-.81-3.44,0-.51.34-.94.4-1.52a3,3,0,0,0-.7-2.54,31.26,31.26,0,0,1-1.83-7.29c1.08-.83,2.1.86,3.24.1,1.64,1,1.24,4.08,1.73,6a3.94,3.94,0,0,0,.91.2,1.74,1.74,0,0,0,.5-1c-.54-.37-.33-1-.5-1.83-.12-.55-.42-1.16-.51-1.72-.23-1.56-1-3.38-.81-4.35a1.29,1.29,0,0,1,2-.71c.17,1-.9,3.52.71,3.64.8-.44.61-1.17.6-2a6.5,6.5,0,0,1,1.22-3.35c.15-.26.16-.57.3-.8s.47-.46.61-.72c.34-.59.4-1.61,1.32-1.51.27.1.12.61.5.6.1-.17.33-.22.51-.3.73.11,1.35-.74,2-1,.11.23.66,0,.71.31.27.57-.48,2.07,0,2.23.9.23.46-1.77,1-2.23a1.07,1.07,0,0,0,1.21-.2c.68.25,1.15-.14,1.73-.2s.89,0,1.32,0c.9-.07,1.43-.31,2.12-.41a18,18,0,0,0,2.74-.2c.34-.11.45-.56.91-.41.39-.71,1-1.07,1.11-1.92.17-1-.31-1.4-.4-2-.21-1.42,1-2.77.71-4.25-.17-.89-1.22-1.48-1.62-2.34-.2-.41-.22-.91-.41-1.21-.8-1.28-2.51-1.94-2.84-3.34.53-.27,1.89-.08,1.42-1-1,0-2.2.14-2.53-.71.09-.44.71-.37.51-1.11-.33-.09-.14.33-.41.3-.63-.54-1.36-.87-1.11-1.82.14-.53,1-.71,1.41-1,.18-.13.25-.39.41-.5.37-.24.87-.23,1-.5a.67.67,0,0,0,.51.09c.38-.35.14-.71.51-1,.22.19,1-.2,1.31.09.61-.87,2.38-.59,3.24-1.21H92l.05-.16a.4.4,0,0,0,.61,0h-.47c0-.26.23-.1.31,0l.16,0-.05.16c.53,0,.67-.34,1.11-.41a1.21,1.21,0,0,0,1.32,0l-.15-.12,0-.18ZM30.29,49.65c.13-.28,1.27-.52,1.42-.11C31,49.54,30.89,49.64,30.29,49.65Z"/><path class="cls-1" d="M44.78,25.94c0,.12.11.16.2.2.08-.31-.35-.12-.2-.5-.42-.05-.27.36-.1.5C44.7,26.07,44.68,25.94,44.78,25.94Z"/><path class="cls-1" d="M45.79,27.36c-.19-.21-.15-.65-.51-.71A.77.77,0,0,0,45.79,27.36Z"/><path class="cls-1" d="M98.37,37.59c-.27,0-.26-.21-.31-.4-.31.23-.45.13-.8.2-.14.23.26.38,0,.4s-.33,0-.26.13l-.45-.27c0,.13-.16.27-.09.41a1,1,0,0,0,.74,0l0,.15A1.56,1.56,0,0,0,98.37,37.59Z"/><path class="cls-1" d="M63.23,2.39c.13-.79.17-1.6.24-2.39Z"/><path class="cls-1" d="M86.26,5.43c0,.45,0,.89,0,1.33Z"/><path class="cls-1" d="M43.31,11.2l-.15-.3c0,.07.05.15.08.27Z"/><path class="cls-1" d="M44.17,25l-.43-.75C43.85,24.56,43.85,24.88,44.17,25Z"/><path class="cls-1" d="M34.4,28a25,25,0,0,0,3,2Z"/><path class="cls-1" d="M61.68,85l-.13-1A5.48,5.48,0,0,0,61.68,85Z"/><path class="cls-1" d="M61.55,83.9a5.92,5.92,0,0,0-.14-1.08Z"/><path class="cls-1" d="M61.16,80.16l-.07-.68C61,79.71,61.12,79.94,61.16,80.16Z"/><path class="cls-1" d="M94.88,38.28l1,0C95.54,38.24,95.2,37.92,94.88,38.28Z"/></g></g></svg>